<?xml version="1.0" standalone="no"?>
<!DOCTYPE svg PUBLIC "-//W3C//DTD SVG 20010904//EN"
 "http://www.w3.org/TR/2001/REC-SVG-20010904/DTD/svg10.dtd">
<svg version="1.0" xmlns="http://www.w3.org/2000/svg"
 width="358.000000pt" height="358.000000pt" viewBox="0 0 358.000000 358.000000"
 preserveAspectRatio="xMidYMid meet">
<metadata>
Created by potrace 1.11, written by Peter Selinger 2001-2013
</metadata>
<g transform="translate(0.000000,358.000000) scale(0.100000,-0.100000)"
fill="#000000" stroke="none">
<path d="M1597 3529 c-27 -4 -70 -10 -95 -14 -25 -3 -49 -8 -53 -10 -4 -3 -24
-7 -45 -11 -125 -18 -419 -143 -556 -235 -144 -97 -319 -254 -403 -363 -44
-56 -134 -187 -149 -216 -7 -14 -28 -54 -47 -90 -58 -108 -129 -305 -143 -394
-4 -21 -8 -42 -11 -46 -2 -4 -7 -27 -10 -51 -4 -24 -9 -55 -11 -69 -10 -50
-12 -346 -3 -410 13 -90 21 -143 23 -155 2 -5 6 -23 10 -40 115 -482 409 -876
837 -1121 161 -92 393 -176 544 -198 23 -4 52 -9 65 -12 56 -14 387 -13 480 1
249 37 485 125 695 259 92 58 92 59 194 146 319 273 528 657 588 1081 13 87 9
406 -6 494 -91 549 -422 1010 -911 1267 -84 44 -254 114 -298 123 -12 2 -26 6
-31 9 -10 6 -137 34 -191 42 -19 3 -42 8 -50 11 -24 9 -370 11 -423 2z"/>
</g>
</svg>
